<svg xmlns="http://www.w3.org/2000/svg" viewBox="0 0 440 440">
  <g id="Layer_2" data-name="Layer 2">
    <g id="Layer_1-2" data-name="Layer 1">
      <g>
        <circle cx="220" cy="220" r="220" fill="#0d203f"/>
        <g>
          <path d="M220,17C108.07,17,17,108.07,17,220s91.07,203,203,203,203-91.07,203-203S331.93,17,220,17Zm0,400C111.37,417,23,328.63,23,220S111.37,23,220,23s197,88.37,197,197S328.63,417,220,417Z" fill="#00b0ed"/>
          <path d="M133.05,205,128,203.67a.66.66,0,0,1-.47-.46l-1.36-5.06a.66.66,0,0,0-1.27,0l-1.36,5.06a.67.67,0,0,1-.46.46L118,205a.66.66,0,0,0,0,1.27l5.06,1.36a.66.66,0,0,1,.46.47l1.36,5.05a.66.66,0,0,0,1.27,0l1.36-5.05a.66.66,0,0,1,.47-.47l5.05-1.36A.66.66,0,0,0,133.05,205Z" fill="#00b0ed"/>
          <path d="M223.08,114.89,218,113.53a.67.67,0,0,1-.46-.46l-1.36-5a.66.66,0,0,0-1.27,0l-1.36,5a.66.66,0,0,1-.47.46l-5,1.36a.66.66,0,0,0,0,1.27l5,1.36a.67.67,0,0,1,.47.47l1.36,5.05a.66.66,0,0,0,1.27,0l1.36-5.05a.68.68,0,0,1,.46-.47l5.06-1.36A.66.66,0,0,0,223.08,114.89Z" fill="#00b0ed"/>
          <path d="M173.41,234.87l-5-1.36a.64.64,0,0,1-.46-.47l-1.36-5a.66.66,0,0,0-1.28,0l-1.36,5a.64.64,0,0,1-.46.47l-5.05,1.36a.66.66,0,0,0,0,1.27l5.05,1.36a.65.65,0,0,1,.46.46l1.36,5.06a.66.66,0,0,0,1.28,0L167.9,238a.65.65,0,0,1,.46-.46l5-1.36A.66.66,0,0,0,173.41,234.87Z" fill="#00b0ed"/>
          <path d="M219.32,163.59l-2.53-.68a.33.33,0,0,1-.23-.23l-.68-2.53a.33.33,0,0,0-.64,0l-.68,2.53a.32.32,0,0,1-.23.23l-2.52.68a.33.33,0,0,0,0,.64l2.52.68a.3.3,0,0,1,.23.23l.68,2.52a.33.33,0,0,0,.64,0l.68-2.52a.32.32,0,0,1,.23-.23l2.53-.68A.33.33,0,0,0,219.32,163.59Z" fill="#00b0ed"/>
          <path d="M314.1,193.58l-3.79-1a.51.51,0,0,1-.35-.35l-1-3.79a.49.49,0,0,0-.95,0l-1,3.79a.51.51,0,0,1-.35.35l-3.79,1a.49.49,0,0,0,0,.95l3.79,1a.51.51,0,0,1,.35.35l1,3.79a.49.49,0,0,0,.95,0l1-3.79a.51.51,0,0,1,.35-.35l3.79-1A.49.49,0,0,0,314.1,193.58Z" fill="#00b0ed"/>
          <path d="M300.67,153.19,295,151.66a.76.76,0,0,1-.52-.52l-1.53-5.69a.74.74,0,0,0-1.43,0L290,151.14a.76.76,0,0,1-.52.52l-5.69,1.53a.74.74,0,0,0,0,1.43l5.69,1.53a.76.76,0,0,1,.52.52l1.53,5.69a.74.74,0,0,0,1.43,0l1.53-5.69a.76.76,0,0,1,.52-.52l5.69-1.53A.74.74,0,0,0,300.67,153.19Z" fill="#00b0ed"/>
          <path d="M177.29,175.61l-7.66-2.07a1,1,0,0,1-.7-.7l-2.07-7.66a1,1,0,0,0-1.92,0l-2.07,7.66a1,1,0,0,1-.7.7l-7.66,2.07a1,1,0,0,0,0,1.92l7.66,2.07a1,1,0,0,1,.7.7l2.07,7.66a1,1,0,0,0,1.92,0l2.07-7.66a1,1,0,0,1,.7-.7l7.66-2.07A1,1,0,0,0,177.29,175.61Z" fill="#00b0ed"/>
          <path d="M282,180.77a22.55,22.55,0,0,1-18.32-33.26,1.53,1.53,0,0,0-1.71-2.19A22.55,22.55,0,1,0,278.05,187a22.53,22.53,0,0,0,4.88-3.63A1.52,1.52,0,0,0,282,180.77Z" fill="#00b0ed"/>
          <circle cx="170.91" cy="207.41" r="3" fill="#00b0ed"/>
          <circle cx="134.9" cy="165.05" r="2" fill="#00b0ed"/>
          <path d="M281.36,242.86l-5.69-1.54a.72.72,0,0,1-.52-.52l-1.53-5.68a.74.74,0,0,0-1.43,0l-1.53,5.68a.72.72,0,0,1-.52.52l-5.69,1.54a.74.74,0,0,0,0,1.43l5.69,1.53a.72.72,0,0,1,.52.52l1.53,5.68a.74.74,0,0,0,1.43,0l1.53-5.68a.72.72,0,0,1,.52-.52l5.69-1.53A.74.74,0,0,0,281.36,242.86Z" fill="#00b0ed"/>
          <circle cx="304.91" cy="267.41" r="3" fill="#00b0ed"/>
          <circle cx="185.04" cy="141.38" r="3" fill="#00b0ed"/>
          <path d="M148.63,270.27l-2.52-.68a.32.32,0,0,1-.23-.23l-.68-2.52a.33.33,0,0,0-.64,0l-.68,2.52a.33.33,0,0,1-.23.23l-2.53.68a.33.33,0,0,0,0,.64l2.53.68a.33.33,0,0,1,.23.23l.68,2.53a.33.33,0,0,0,.64,0l.68-2.53a.32.32,0,0,1,.23-.23l2.52-.68A.33.33,0,0,0,148.63,270.27Z" fill="#00b0ed"/>
          <circle cx="126.36" cy="242.06" r="3" fill="#00b0ed"/>
          <circle cx="290.84" cy="222.28" r="2" fill="#00b0ed"/>
          <path d="M178.43,353a4.39,4.39,0,0,0-4.28,4.49v20.33s0,12.61,4.28,12.61,4.27-12.61,4.27-12.61V357.53A4.38,4.38,0,0,0,178.43,353Z" fill="#00b0ed"/>
          <path d="M157.88,353a4.39,4.39,0,0,0-4.28,4.49v10.33s0,12.61,4.28,12.61,4.27-12.61,4.27-12.61V357.53A4.38,4.38,0,0,0,157.88,353Z" fill="#00b0ed"/>
          <path d="M282.12,353a4.38,4.38,0,0,0-4.27,4.49v10.33s0,12.61,4.27,12.61,4.28-12.61,4.28-12.61V357.53A4.39,4.39,0,0,0,282.12,353Z" fill="#00b0ed"/>
          <path d="M261.57,353a4.38,4.38,0,0,0-4.27,4.49v20.33s0,12.61,4.27,12.61,4.28-12.61,4.28-12.61V357.53A4.39,4.39,0,0,0,261.57,353Z" fill="#00b0ed"/>
          <path d="M111.2,118.05l4.26-4.07-5.66-5.92,3.41-3.25,5.65,5.91,4.27-4.07L104.83,87.5a3.08,3.08,0,0,0-4.54-.11l-7.32,7a3,3,0,0,0-.07,4.51ZM98.92,95.58l2.29-2.19a.72.72,0,0,1,1.06,0l7.53,7.89-3.4,3.26-7.54-7.9A.7.7,0,0,1,98.92,95.58Z" fill="#00b0ed"/>
          <polygon points="141.6 93.42 135.74 83.95 141.5 80.39 138.85 76.12 133.09 79.69 128.62 72.47 135.43 68.26 132.76 63.95 120.94 71.28 136.59 96.52 141.6 93.42" fill="#00b0ed"/>
          <path d="M161.81,82.68l5.55-2L164.59,73l4.43-1.6,2.77,7.7,5.55-2-9-24.93a3.07,3.07,0,0,0-4.11-1.93l-9.52,3.42a3,3,0,0,0-1.89,4.1Zm-2.12-25.51,3-1.08a.73.73,0,0,1,1,.4l3.69,10.26-4.43,1.6-3.69-10.27A.7.7,0,0,1,159.69,57.17Z" fill="#00b0ed"/>
          <polygon points="219.14 71.14 218.96 60.01 225.73 59.9 225.65 54.88 218.87 54.99 218.74 46.5 226.74 46.37 226.66 41.31 212.76 41.54 213.24 71.23 219.14 71.14" fill="#00b0ed"/>
          <polygon points="256.04 70.04 249.08 68.73 253.61 44.6 247.82 43.51 242.33 72.7 255.09 75.1 256.04 70.04" fill="#00b0ed"/>
          <polygon points="284.55 80.01 277.04 76.98 279.82 70.08 286.15 72.63 288 68.02 281.68 65.47 284.36 58.82 291.87 61.84 293.76 57.15 280.74 51.91 269.64 79.46 282.66 84.7 284.55 80.01" fill="#00b0ed"/>
          <polygon points="311.24 95.78 304.5 91.31 308.6 85.11 314.29 88.88 317.03 84.73 311.35 80.97 315.31 74.99 322.06 79.46 324.85 75.24 313.15 67.49 296.75 92.25 308.45 100 311.24 95.78" fill="#00b0ed"/>
          <polygon points="336.33 91.02 339.77 94.42 322.47 111.96 326.7 116.13 344 98.59 347.45 101.98 351 98.38 339.88 87.41 336.33 91.02" fill="#00b0ed"/>
          <path d="M377.16,218.38V204.85a3.49,3.49,0,0,0-3.63-3.68H359.77v31.05H366V222.06h2.35l2.81,10.16h6.12L374.36,222A3.42,3.42,0,0,0,377.16,218.38Zm-6.11-1.75a.45.45,0,0,1-.37.41H366V206.46h4.7a.46.46,0,0,1,.37.46Z" fill="#00b0ed"/>
          <path d="M396.25,201.17H383.79v31.05h12.46a4.87,4.87,0,0,0,5-5.06v-21A4.86,4.86,0,0,0,396.25,201.17Zm-1.19,24.47a1.23,1.23,0,0,1-1.29,1.29H390V206.46h3.77a1.21,1.21,0,0,1,1.29,1.29Z" fill="#00b0ed"/>
          <path d="M51.39,213.68H44.9v-7.36h9.66v-5.15H39.24v17.71h8.93a.53.53,0,0,1,.55.55v7.09a.53.53,0,0,1-.55.55h-9v5.15H51.39a3.44,3.44,0,0,0,3.54-3.59V217.27A3.44,3.44,0,0,0,51.39,213.68Z" fill="#00b0ed"/>
          <path d="M74.39,201.17H62.1v5.15h8.84a.53.53,0,0,1,.55.55v6.21a.53.53,0,0,1-.55.56H62.88v5.06h8.06a.53.53,0,0,1,.55.55v7.27a.53.53,0,0,1-.55.55H62.1v5.15H74.48a3.23,3.23,0,0,0,3.22-3.54v-8.51a3.65,3.65,0,0,0-2.44-3.73,4.8,4.8,0,0,0,2.44-3.86v-8.05A3.13,3.13,0,0,0,74.39,201.17Z" fill="#00b0ed"/>
          <path d="M326.62,137.17l-85-49.44a43.07,43.07,0,0,0-43.24,0l-85,49.44A43.14,43.14,0,0,0,92,174.34v99.41a43.13,43.13,0,0,0,21.38,37.17l33,19.06,13.7-5.11v-14a1.69,1.69,0,0,1,1.69-1.68h6.25a1.68,1.68,0,0,1,1.68,1.68v10.54l29.83-10.86V260c0-23,5.9-36,10.84-42.93a29.78,29.78,0,0,1,9.6-9,29.8,29.8,0,0,1,9.6,9c4.94,6.92,10.84,20,10.84,42.93v50.47l29.83,10.86V310.83a1.68,1.68,0,0,1,1.68-1.68h6.25a1.69,1.69,0,0,1,1.69,1.68v14l14,5.11,32.69-19.06A43.13,43.13,0,0,0,348,273.75V174.34A43.14,43.14,0,0,0,326.62,137.17ZM342,273.75a37.11,37.11,0,0,1-18.4,32l-30.31,17.64-7.4-2.7v-9.84a7.7,7.7,0,0,0-7.69-7.68H272a7.69,7.69,0,0,0-7.68,7.68v2l-17.83-6.49V260c0-48.2-24.37-57.67-25.41-58.05l-1-.38-1,.38c-1,.38-25.41,9.85-25.41,58.05v46.27l-17.83,6.49v-2a7.69,7.69,0,0,0-7.68-7.68H161.8a7.7,7.7,0,0,0-7.69,7.68v9.84l-7.4,2.7L116.4,305.73a37.11,37.11,0,0,1-18.4-32V174.34a37.11,37.11,0,0,1,18.4-32l85-49.45a37.1,37.1,0,0,1,37.2,0l85,49.45a37.11,37.11,0,0,1,18.4,32Z" fill="#00b0ed"/>
        </g>
      </g>
    </g>
  </g>
</svg>
