<svg xmlns="http://www.w3.org/2000/svg" viewBox="0 0 240 80"><g id="Layer_2" data-name="Layer 2"><g id="Layer_1-2" data-name="Layer 1"><path d="M63,38.51a21.82,21.82,0,0,0,8-7.2,17.32,17.32,0,0,0,3.07-9.82,20,20,0,0,0-3.2-11.26,21.45,21.45,0,0,0-8.61-7.54A26.49,26.49,0,0,0,50.36,0H0V80H51.69A27.69,27.69,0,0,0,64,77.26,22,22,0,0,0,73,69.43a20.78,20.78,0,0,0,3.32-11.6,19.26,19.26,0,0,0-3.68-11.37A23.75,23.75,0,0,0,63,38.51Z"/><path d="M142.77,5.09Q132.89,0,119.76,0H86.51V80h33.25q13.12,0,23-5.09a37.13,37.13,0,0,0,15.3-14.17A39.62,39.62,0,0,0,163.49,40a39.62,39.62,0,0,0-5.42-20.74A37.13,37.13,0,0,0,142.77,5.09Z"/><path d="M236.57,41.49a22.9,22.9,0,0,0-9.64-8.35,33,33,0,0,0-14.4-3H199.88a6.63,6.63,0,0,1-4.76-1.77,5.94,5.94,0,0,1-1.87-4.51,6,6,0,0,1,1.87-4.4,6.4,6.4,0,0,1,4.76-1.89h34.94V0H197a28.28,28.28,0,0,0-13.2,3.09,24,24,0,0,0-9.45,8.62,23.42,23.42,0,0,0-3.5,12.75,22.46,22.46,0,0,0,3.62,12.74,23.5,23.5,0,0,0,9.82,8.34,31.9,31.9,0,0,0,13.79,2.92h12.05a7.35,7.35,0,0,1,5.36,2,6.63,6.63,0,0,1,2.11,4.92,6.48,6.48,0,0,1-2.11,4.8,7.35,7.35,0,0,1-5.36,2.06h-35.9V80h39.39A28.91,28.91,0,0,0,227,76.91a23,23,0,0,0,9.52-9A27.36,27.36,0,0,0,240,53.83,22.39,22.39,0,0,0,236.57,41.49Z"/></g></g></svg>