<?xml version="1.0" encoding="UTF-8"?>
<svg id="Layer_1" xmlns="http://www.w3.org/2000/svg" version="1.1" viewBox="0 0 83.5 24">
  <!-- Generator: Adobe Illustrator 29.1.0, SVG Export Plug-In . SVG Version: 2.1.0 Build 142)  -->
  <defs>
    <style>
      .st0 {
        fill: #f03d26;
      }
    </style>
  </defs>
  <path class="st0" d="M0,12c0,6.9,5.4,12,12.8,12s4.3-.2,6.6-2.4v1.9h5v-13.8h-10.9v4.9h4.5c-.5,1.8-2.5,3.6-5.3,3.6-4,0-5.4-3.3-5.4-6.3s1.4-6.3,5.4-6.3,3.7.7,4.3,1.9v.2h7.4v-.4C23,2,17.3,0,12.8,0,5.4,0,0,5.1,0,12"/>
  <path class="st0" d="M35.8,9.8h-4.1v-3.7h3.9c.7,0,2.2.2,2.2,1.8,0,1.3-.7,1.9-2,1.9M76.2,1s-3.6,7.4-4.1,8.4c-.5-1.1-4.1-8.4-4.1-8.4h-21.9v19.5c-1.7-3-4.1-7-4.3-7.4,2-1,3.3-3.1,3.3-5.6s-.9-3.9-2.5-5c-1.4-1-3.3-1.5-5.5-1.5h-11.6v22.5h6.3v-8.7h3.6c.2.3,4.4,8.7,4.4,8.7h26.2v-5.2h-13v-3.4h9.4v-4.8h-9.4v-3.9h10.9c2.3,4,5.1,8.9,5.2,9v8.4h6.4v-8.4c0-.2,8.2-14.1,8.2-14.1h-7.3"/>
</svg>