<?xml version="1.0" encoding="UTF-8"?>
<svg id="Logo" xmlns="http://www.w3.org/2000/svg" version="1.1" viewBox="0 0 255.2 24">
  <!-- Generator: Adobe Illustrator 29.1.0, SVG Export Plug-In . SVG Version: 2.1.0 Build 142)  -->
  <defs>
    <style>
      .st0 {
        fill: #fff;
      }
    </style>
  </defs>
  <g id="Group_494">
    <g id="Group_493">
      <path id="Path_377" class="st0" d="M3.4,14.5c0-.1-.3-.1-.3,0v8.5c0,.4-.3.7-.7.7H.7c-.4,0-.7-.3-.7-.7V1C0,.6.3.3.7.3h1.8c.4,0,.7.3.7.7v8c0,.2.2.2.3,0L9.9.6c.2-.2.4-.4.7-.3h1.8c.4,0,.7.3.7.7,0,.2,0,.3-.2.5l-7.6,9.7c-.2.3-.3.5,0,.8l8.6,10.4c.3.3.2.8-.1,1.1-.1.1-.3.2-.5.2h-2.1c-.3,0-.6,0-.7-.3L3.4,14.5ZM34.7,7c.3,3.3.3,6.7,0,10-.3,4-3.6,7-7.5,7-4,0-7.3-3-7.5-7-.3-3.3-.3-6.7,0-10C19.9,3.1,23.2,0,27.2,0c4,0,7.3,3,7.5,7ZM31.5,17c.4-3.3.4-6.7,0-10-.3-2.4-2.6-4.1-5-3.7-1.9.3-3.5,1.8-3.7,3.7-.3,3.3-.3,6.7,0,10,.2,2.2,2.1,3.9,4.4,3.8,2.2,0,4.1-1.6,4.4-3.8h0ZM45.2,20.2c0,.2.1.3.3.3,0,0,0,0,0,0h7.5c.4,0,.7.3.7.7v1.8c0,.4-.3.7-.7.7h-10.3c-.4,0-.7-.3-.7-.7V1c0-.4.3-.7.7-.7h1.8c.4,0,.7.3.7.7v19.3ZM60.2,3.5c-.4,0-.7-.3-.7-.7V1c0-.4.3-.7.7-.7h10.9c.4,0,.7.3.7.7v1.8c0,.4-.3.7-.7.7h-10.9ZM60.2,13.6c-.4,0-.7-.3-.7-.7v-1.8c0-.4.3-.7.7-.7h10.9c.4,0,.7.3.7.7v1.8c0,.4-.3.7-.7.7h-10.9ZM60.2,23.7c-.4,0-.7-.3-.7-.7v-1.8c0-.4.3-.7.7-.7h10.9c.4,0,.7.3.7.7v1.8c0,.4-.3.7-.7.7h-10.9ZM82.1,14.5c0-.1-.3-.1-.3,0v8.5c0,.4-.3.7-.7.7h-1.8c-.4,0-.7-.3-.7-.7V1c0-.4.3-.7.7-.7h1.8c.4,0,.7.3.7.7v8c0,.2.2.2.3,0l6.5-8.4c.2-.2.4-.4.7-.3h1.8c.4,0,.7.3.7.7,0,.2,0,.3-.2.5l-7.6,9.7c-.2.3-.3.5,0,.8l8.6,10.4c.3.3.2.8-.1,1.1-.1.1-.3.2-.5.2h-2.1c-.3,0-.6,0-.7-.3l-7.1-8.9ZM105.2,23.1c0,.4-.3.7-.7.7h-1.8c-.4,0-.7-.3-.7-.7V3.8c0-.2-.1-.3-.3-.3,0,0,0,0,0,0h-4.5c-.4,0-.7-.3-.7-.7V1c0-.4.3-.7.7-.7h12.7c.4,0,.7.3.7.7v1.8c0,.4-.3.7-.7.7h-4.4c-.2,0-.3.1-.3.3,0,0,0,0,0,0v19.3ZM119.4,23.1c0,.4-.3.7-.7.7h-1.8c-.4,0-.7-.3-.7-.7V1c0-.4.3-.7.7-.7h1.8c.4,0,.7.3.7.7v22.1ZM130.3,23.1c0,.4-.3.7-.7.7h-1.8c-.4,0-.7-.3-.7-.7V1c0-.4.3-.7.7-.7h10.8c.4,0,.7.3.7.7v1.8c0,.4-.3.7-.7.7h-8c-.2,0-.3.1-.3.3,0,0,0,0,0,0v6c0,.2.1.3.3.3,0,0,0,0,0,0h7.6c.4,0,.7.3.7.7v1.8c0,.4-.3.7-.7.7h-7.6c-.2,0-.3.1-.3.3,0,0,0,0,0,0v9.4Z"/>
    </g>
  </g>
  <g id="Group_495">
    <path id="Path_378" class="st0" d="M167.7.9c0-.4.3-.7.7-.7h1.8c.4,0,.7.3.7.7v22c0,.4-.3.7-.7.7h-1.8c-.4,0-.7-.3-.7-.7v-9.3c0-.2-.1-.3-.3-.3,0,0,0,0,0,0h-7.3c-.2,0-.3.1-.3.3,0,0,0,0,0,0v9.3c0,.4-.3.7-.7.7h-1.8c-.4,0-.7-.3-.7-.7V.9c0-.4.3-.7.7-.7h1.8c.4,0,.7.3.7.7v8.8c0,.2.1.3.3.3,0,0,0,0,0,0h7.3c.2,0,.3-.1.3-.3,0,0,0,0,0,0V.9Z"/>
    <path id="Path_379" class="st0" d="M193.2,6.9c.3,3.3.3,6.7,0,10-.3,3.9-3.6,7-7.5,6.9-4,0-7.3-3-7.5-6.9-.3-3.3-.3-6.7,0-10,.3-3.9,3.6-7,7.5-6.9,4,0,7.3,3,7.5,6.9ZM190.1,17c.4-3.3.4-6.7,0-10-.3-2.4-2.6-4.1-4.9-3.7-1.9.3-3.5,1.8-3.7,3.7-.3,3.3-.3,6.7,0,10,.2,2.2,2.1,3.8,4.3,3.8,2.2,0,4.1-1.6,4.3-3.8h0Z"/>
    <path id="Path_380" class="st0" d="M215.2,16.9c-.1,4-3.5,7.1-7.5,6.9,0,0,0,0,0,0-3.9.3-7.2-2.7-7.5-6.6,0-.1,0-.3,0-.4V.9c0-.4.3-.7.7-.7h1.8c.4,0,.7.3.7.7v16c0,2.7,2.2,3.8,4.3,3.8,2.2.2,4.1-1.4,4.3-3.6,0,0,0-.1,0-.2V.9c0-.4.3-.7.7-.7h1.8c.4,0,.7.3.7.7v16Z"/>
    <path id="Path_381" class="st0" d="M227.7,12.6c-3.3-.7-5.6-2.7-5.6-6.4.3-3.8,3.7-6.6,7.5-6.2,3.3.3,5.9,2.9,6.2,6.2v.4c0,.4-.3.7-.7.7h-1.8c-.4,0-.7-.3-.7-.7v-.4c0-1.8-1.6-3.2-3.4-3.1,0,0-.2,0-.3,0-2.2,0-3.7,1.2-3.7,3.1,0,2.9,2.8,3.2,5,3.8,3.8.9,6.2,3.1,6.2,6.9-.3,4.1-4,7.2-8.1,6.9-3.7-.3-6.6-3.2-6.9-6.9v-.5c0-.4.3-.7.7-.7h1.9c.4,0,.7.3.7.7v.5c.3,2.4,2.5,4,4.9,3.7,1.9-.3,3.5-1.8,3.7-3.7,0-3.1-2.2-3.5-5.6-4.3h0Z"/>
    <path id="Path_382" class="st0" d="M246.2,20.1c0,.2.1.3.3.3,0,0,0,0,0,0h8c.4,0,.7.3.7.7v1.8c0,.4-.3.7-.7.7h-10.8c-.4,0-.7-.3-.7-.7V.9c0-.4.3-.7.7-.7h10.8c.4,0,.7.3.7.7v1.8c0,.4-.3.7-.7.7h-7.9c-.2,0-.3.1-.3.3,0,0,0,0,0,0v6c0,.2.1.3.3.3,0,0,0,0,0,0h7.6c.4,0,.7.3.7.7v1.8c0,.4-.3.7-.7.7h-7.6c-.2,0-.3.1-.3.3,0,0,0,0,0,0v6.5Z"/>
  </g>
</svg>