<?xml version="1.0" encoding="UTF-8"?>
<svg id="Layer_1" xmlns="http://www.w3.org/2000/svg" version="1.1" viewBox="0 0 400 400">
  <!-- Generator: Adobe Illustrator 29.1.0, SVG Export Plug-In . SVG Version: 2.1.0 Build 142)  -->
  <defs>
    <style>
      .st0 {
        fill: #fff;
      }
    </style>
  </defs>
  <path class="st0" d="M200,0C89.5,0,0,89.5,0,200s89.5,200,200,200,200-89.5,200-200S310.5,0,200,0ZM313.1,313.1c-30.2,30.2-70.4,46.9-113.1,46.9s-82.9-16.6-113.1-46.9-46.9-70.4-46.9-113.1,16.6-82.9,46.9-113.1,70.4-46.9,113.1-46.9,82.9,16.6,113.1,46.9,46.9,70.4,46.9,113.1-16.6,82.9-46.9,113.1Z"/>
  <path class="st0" d="M280,230.6v-25c0-2.2-1.8-4-4-4h-50.6c-2.2,0-4,1.8-4,4v25c0,2.2-1.8,4-4,4h-34.9c-2.2,0-4-1.8-4-4v-25c0-2.2-1.8-4-4-4h-50.6c-2.2,0-4,1.8-4,4v70.4c0,2.2,1.8,4,4,4h152c2.2,0,4-1.8,4-4v-45.4h0Z"/>
  <rect class="st0" x="221.4" y="120" width="58.6" height="53.3" rx="4" ry="4"/>
  <rect class="st0" x="120" y="120" width="58.6" height="53.3" rx="4" ry="4"/>
</svg>