<svg xmlns="http://www.w3.org/2000/svg" xmlns:xlink="http://www.w3.org/1999/xlink" viewBox="0 0 1220.6 372"><defs><style>.cls-1{fill:url(#linear-gradient);}.cls-2,.cls-3,.cls-4,.cls-5{opacity:0.7;}.cls-2{fill:url(#linear-gradient-2);}.cls-3{fill:url(#linear-gradient-3);}.cls-4{fill:url(#linear-gradient-4);}.cls-5{fill:url(#linear-gradient-5);}</style><linearGradient id="linear-gradient" x1="1220.6" y1="186" x2="0" y2="186" gradientUnits="userSpaceOnUse"><stop offset="0" stop-color="#00cfbd"/><stop offset="1" stop-color="#00b0ed"/></linearGradient><linearGradient id="linear-gradient-2" x1="-473.18" y1="-2901.52" x2="-473.18" y2="-2819.99" gradientTransform="translate(-1980.95 598.38) rotate(90)" gradientUnits="userSpaceOnUse"><stop offset="0.09" stop-opacity="0"/><stop offset="1"/></linearGradient><linearGradient id="linear-gradient-3" x1="-773.34" y1="-2601.36" x2="-773.34" y2="-2519.83" gradientTransform="translate(-2105.28 898.54) rotate(90)" xlink:href="#linear-gradient-2"/><linearGradient id="linear-gradient-4" x1="-3202.76" y1="24.6" x2="-3202.76" y2="110.55" gradientTransform="translate(697.02 -2955.63) rotate(-90)" gradientUnits="userSpaceOnUse"><stop offset="0.03" stop-opacity="0"/><stop offset="0.95"/></linearGradient><linearGradient id="linear-gradient-5" x1="-2902.34" y1="-275.81" x2="-2902.34" y2="-189.87" gradientTransform="translate(572.58 -2655.21) rotate(-90)" xlink:href="#linear-gradient-4"/></defs><g id="Layer_2" data-name="Layer 2"><g id="Layer_1-2" data-name="Layer 1"><path class="cls-1" d="M1166.21,54.49a186,186,0,0,0-263,0l-80.7,80.72L745.27,58c-1.28-1.35-2.45-2.55-3.57-3.68-72.52-72.48-190.52-72.48-263.05,0L398,135,317.43,54.49h0a186,186,0,0,0-263,0c-72.52,72.54-72.52,190.57,0,263.11a186.18,186.18,0,0,0,263,0l80.74-80.76L475.34,314c1.29,1.37,2.43,2.55,3.56,3.68a186.29,186.29,0,0,0,263.05,0L822.61,237l80.56,80.58a186.18,186.18,0,0,0,263,0C1238.73,245.06,1238.73,127,1166.21,54.49ZM266.52,266.67a114,114,0,1,1,0-161.26L347.13,186Zm424.52.08a114.16,114.16,0,0,1-161.22,0c-.72-.72-1.5-1.53-2.45-2.54l-.37-.39-78-78,80.61-80.57a114.16,114.16,0,0,1,161.21,0c.72.73,1.52,1.55,2.45,2.54l.37.39,78,78Zm424.26-.08a114.1,114.1,0,0,1-161.22,0L873.47,186l80.61-80.63A114,114,0,1,1,1115.3,266.67Z"/><rect class="cls-2" x="833.4" y="89.16" width="100.4" height="72.09" transform="translate(170.27 661.47) rotate(-45)"/><rect class="cls-3" x="408.91" y="89.16" width="100.4" height="72.09" transform="translate(45.94 361.31) rotate(-45)"/><rect class="cls-4" x="711.48" y="211.08" width="100.4" height="72.09" transform="translate(48.34 610.97) rotate(-45)"/><rect class="cls-5" x="286.62" y="211.08" width="100.4" height="72.09" transform="translate(-76.09 310.55) rotate(-45)"/></g></g></svg>